# xmcd
#
# Track frame offsets: 
#        150
#        13141
#        26365
#        39295
#        53303
#        67443
#        77779
#        92206
#        102522
#        115649
#        128935
#        143555
#        154967
#        167777
#        177194
#        187051
#        202115
#        211820
#        222390
#        232677
#        244146
#        255455
#        268955
#        283301
#        297036
#
# Disc length: 4147 seconds
#
# Revision: 0
# Processed by: cddbd v1.5.2PL0 Copyright (c) Steve Scherf et al.
# Submitted via: ExactAudioCopyFreeDBPlugin 1.0
#
DISCID=73103119
DTITLE=Various Artist - Tumbling Tumbleweeds - Disk2
DYEAR=1900
DGENRE=
TTITLE0=Bing Crosby - Sioux City Sue
TTITLE1=Al Dexter - Pistol Packin' Mama
TTITLE2=Jimmy Wakely - Take Me Back to My Boots and Saddle
TTITLE3=Tennessee Ernie Ford - Mule Train
TTITLE4=The Sons of the Pioneers - When It's Springtime in the Rockies
TTITLE5=Bob Wills and His Texas Playboys - Deep in the Heart of Texas
TTITLE6=Eddy Arnold - The Streets of Laredo
TTITLE7=George Hamilton IV - Abilene
TTITLE8=Gene Autry - The Yellow Rose of Texas
TTITLE9=Jimmy Wakely - The Call of the Canyon
TTITLE10=The Sons of the Pioneers - Hills of Old Wyomin'
TTITLE11=Jerry Reed - El Paso
TTITLE12=T. Texas Tyler - Oklahoma Hills
TTITLE13=Hank Snow - Cross the Brazos at Waco
TTITLE14=The Sons of the Pioneers - Moonlight on the Colorado
TTITLE15=Gene Autry - Louisiana Moon
TTITLE16=The Sons of the Pioneers - A Gay Ranchero
TTITLE17=Bob Wills and His Texas Playboys - South of the Border
TTITLE18=The Sons of the Pioneers - My Adobe Hacienda
TTITLE19=Jim Reeves - Mexicali Rose
TTITLE20=Red Foley - Don't Let the Stars Get in Your Eyes
TTITLE21=Roy Rogers - Along the Navajo Trail
TTITLE22=Rex Allen - The Trail of the Lonesome Pine
TTITLE23=Roy Rogers and Dale Evans - Happy Trails
TTITLE24=Jimmy Wakely - Blue Shadows on the Trail
EXTD=
EXTT0=
EXTT1=
EXTT2=
EXTT3=
EXTT4=
EXTT5=
EXTT6=
EXTT7=
EXTT8=
EXTT9=
EXTT10=
EXTT11=
EXTT12=
EXTT13=
EXTT14=
EXTT15=
EXTT16=
EXTT17=
EXTT18=
EXTT19=
EXTT20=
EXTT21=
EXTT22=
EXTT23=
EXTT24=
PLAYORDER=
